<svg xmlns="http://www.w3.org/2000/svg" xmlns:svg="http://www.w3.org/2000/svg" id="svg2" width="24" height="24" version="1.1"><metadata id="metadata7"/><g id="layer1" transform="translate(0,-1028.3622)"><path style="fill:#3498db;fill-opacity:1;fill-rule:nonzero;stroke:none" id="path3010" d="M 5,1031.3622 C 3.895431,1031.3622 3,1032.2576 3,1033.3622 L 3,1047.3622 C 3,1048.4668 3.895431,1049.3622 5,1049.3622 L 18,1049.3622 19,1049.3622 C 20.104569,1049.3622 21,1048.4668 21,1047.3622 L 21,1034.3622 18,1031.3622 5,1031.3622 z"/><path style="fill:#2980b9;fill-opacity:1;fill-rule:nonzero;stroke:none" id="rect3055-1" d="M 7,1031.3622 7,1032.3622 7,1037.3622 C 7,1037.9145 7.447715,1038.3622 8,1038.3622 L 16,1038.3622 C 16.552285,1038.3622 17,1037.9145 17,1037.3622 L 17,1032.3622 17,1031.3622 7,1031.3622 z"/><path style="fill:#ecf0f1;fill-opacity:1;fill-rule:nonzero;stroke:none" id="rect3055" d="M 7 3 L 7 8 C 7 8.5522847 7.4477153 9 8 9 L 16 9 C 16.552285 9 17 8.5522847 17 8 L 17 3 L 7 3 z" transform="translate(0,1028.3622)"/><path style="fill:#ecf0f1;fill-opacity:1;fill-rule:nonzero;stroke:none" id="rect3055-7" d="M 6,1040.3622 C 5.447715,1040.3622 5,1040.8099 5,1041.3622 L 5,1044.3622 5,1046.3622 5,1049.3622 9,1049.3622 15,1049.3622 19,1049.3622 19,1046.3622 19,1044.3622 19,1041.3622 C 19,1040.8099 18.552285,1040.3622 18,1040.3622 L 14,1040.3622 10,1040.3622 6,1040.3622 z"/><rect style="fill:#bdc3c7;fill-opacity:1;fill-rule:nonzero;stroke:none" id="rect3159" width="14" height="1" x="5" y="1048.362"/><rect style="fill:#bdc3c7;fill-opacity:1;fill-rule:nonzero;stroke:none" id="rect3161-0" width="10" height="1" x="7" y="1042.362"/><rect style="fill:#bdc3c7;fill-opacity:1;fill-rule:nonzero;stroke:none" id="rect3161-0-2" width="10" height="1" x="7" y="1044.362"/><rect style="fill:#3498db;fill-opacity:1;fill-rule:nonzero;stroke:none" id="rect3081" width="3" height="4" x="13" y="1032.362"/><rect style="fill:#2980b9;fill-opacity:1;fill-rule:nonzero;stroke:none" id="rect3064" width="3" height="1" x="13" y="1032.362"/></g></svg>