<svg xmlns="http://www.w3.org/2000/svg" width="24" height="24" viewBox="0 0 24 24"><path fill="#95a5a6" d="M7 0c-.982 0-3 2.018-3 3v16c0 1 1 2 2 2h12c.982 0 1-1.018 1-2V5l-4-5z"/><path fill="#bdc3c7" d="M6 0c-.982 0-2 1.018-2 2v16c0 .982 1.018 2 2 2h12c.982 0 2-1.018 2-2V5l-5-5z"/><path fill="#95a5a6" d="M20 5l-5-5v3c0 .982 1.03 1.845 2 2z"/><g transform="matrix(.5 0 0 .5 16.225 -497.681)"><circle cx="6.55" cy="1034.362" r="9" fill="#27ae60"/><circle cx="6.55" cy="1032.362" r="9" fill="#2ecc71"/><path fill="#27ae60" d="M1.55 1035.362h4v4h2v-4h4v-2h-4v-4h-2v4h-4z"/><path fill="#ecf0f1" d="M1.55 1033.362h4v4h2v-4h4v-2h-4v-4h-2v4h-4z"/></g></svg>