<svg xmlns="http://www.w3.org/2000/svg" xmlns:svg="http://www.w3.org/2000/svg" xmlns:xlink="http://www.w3.org/1999/xlink" id="svg2" width="24" height="24" version="1.1"><metadata id="metadata7"/><g id="layer1" transform="translate(3,-1051.3622)"><path id="path2987-2" d="m 23,1044.3622 c 0,1.1046 -0.8954,2 -2,2 H 13 9 7 c -1.1046,0 -2,-0.8954 -2,-2 v -10 c 0,-1.1046 0.8954,-2 2,-2 h 2 4 4 4 c 1.1046,0 2,0.8954 2,2 v 4 z" style="fill:#95a5a6;fill-opacity:1;fill-rule:nonzero;stroke:none"/><path id="path2987" d="m 5,1043.3622 c 0,1.1046 0.8954,2 2,2 h 4 4 6 c 1.1046,0 2,-0.8954 2,-2 v -10 c 0,-1.1046 -0.8954,-2 -2,-2 H 15 11 8 7 c -1.1046,0 -2,0.8954 -2,2 v 4 z" style="fill:#bdc3c7;fill-opacity:1;fill-rule:nonzero;stroke:none"/><rect id="rect3020" width="14" height="10" x="7" y="1033.362" style="fill:#f39c12;fill-opacity:1;fill-rule:nonzero;stroke:none"/><path id="rect3020-7" d="M 16.625,8.625 9,15 h 12 v -2 z" transform="translate(0,1028.3622)" style="fill:#e67e22;fill-opacity:1;fill-rule:nonzero;stroke:none"/><path id="path3073" d="m 13,1036.3622 a 2.5,2.5 0 1 1 -5,0 2.5,2.5 0 1 1 5,0 z" style="fill:#f1c40f;fill-opacity:1;fill-rule:nonzero;stroke:none;stroke-width:1.75"/><path id="rect3052" d="m 10,1037.3622 -3,3.1875 v 2.8125 h 10 z" style="fill:#d35400;fill-opacity:1;fill-rule:nonzero;stroke:none"/></g><use id="use901" width="100%" height="100%" x="0" y="0" transform="translate(-2,19.999966)" xlink:href="#layer1"/><use id="use903" width="100%" height="100%" x="0" y="0" transform="translate(-3,4.000034)" xlink:href="#use901"/><use id="use903-6" width="100%" height="100%" x="0" y="0" transform="translate(-6,8.000034)" xlink:href="#use901"/></svg>